Simulation
nRows=28
nColumns=15
endheader
time  TH_x TH_y TH_z SC_y  SC_z  SC_x  AC_y  AC_z  AC_x  GH_y  GH_z  GH_yy  EL_x  PS_y
1.55  0.000000  0.000000  0.000000  -33.05967546976681  7.720057118195251  21.718223291884602  51.50328672960879  8.977960785685962  -3.79527246013282  23.38493157300869  56.26614728721197  -19.09631777304704  17.946623430146083  0.000000
1.581  0.000000  0.000000  0.000000  -33.37766579934602  7.992569242416334  22.26942082445574  51.45800334454892  9.08474454620965  -3.536524902607836  23.202141134832818  56.74055508258158  -19.11741187827593  17.921598271782436  0.000000
1.612  0.000000  0.000000  0.000000  -33.67331838730548  8.228918357923348  22.72565067277847  51.439876501124814  9.174533705661066  -3.276864525680921  23.010817142301885  57.172942190958814  -19.108588597385964  17.906865460493833  0.000000
1.643  0.000000  0.000000  0.000000  -33.9424330290255  8.42191882061188  23.088140277522378  51.44831959359544  9.253328422466302  -3.0301175484148777  22.820285782007836  57.550757464782684  -19.083421151655294  17.90671579173616  0.000000
1.674  0.000000  0.000000  0.000000  -34.18321327190988  8.570257438808968  23.36383278917322  51.47555971981185  9.32609869644328  -2.8089914233591213  22.651548634487188  57.854020448638614  -19.057500188740697  17.920933206475457  0.000000
1.705  0.000000  0.000000  0.000000  -34.39748044293788  8.67803298052622  23.564947549529865  51.51072947807501  9.393608863030929  -2.624036938662495  22.528786128129575  58.06159301195262  -19.04060673368075  17.94536398312298  0.000000
1.736  0.000000  0.000000  0.000000  -34.581685880708825  8.749745536283239  23.700245240049647  51.54340842141597  9.452382444413415  -2.485249452899342  22.470529559790524  58.158051848637875  -19.0377701069139  17.9747035374347  0.000000
1.767  0.000000  0.000000  0.000000  -34.72843851821217  8.788926074712426  23.775189491950435  51.565941750221185  9.49521723704509  -2.402323682155853  22.485126948287746  58.13717360257316  -19.051052135447556  18.004344567335785  0.000000
1.798  0.000000  0.000000  0.000000  -34.8237493682006  8.796139107149266  23.788369030665304  51.573863705208844  9.513881849626252  -2.3841529085523034  22.5717410946451  58.00077057791898  -19.08364019270798  18.031020079390565  0.000000
1.829  0.000000  0.000000  0.000000  -34.85583823528781  8.769990851501994  23.7376243530635  51.56701757216374  9.501414958444355  -2.4366901424525107  22.724025936002118  57.75465585675238  -19.142207499660614  18.052530329307572  0.000000
1.8599999999999999  0.000000  0.000000  0.000000  -34.816196839064034  8.70585911602295  23.620410857684696  51.55097930907945  9.454041304382564  -2.56150320991886  22.93328734972032  57.40419145601997  -19.2403213099897  18.067784233485895  0.000000
1.891  0.000000  0.000000  0.000000  -34.70625264377205  8.597667734713875  23.43816113097759  51.537544486605746  9.370542729837908  -2.7547944201139263  23.18951069699386  56.95392220026008  -19.39489681061727  18.07647181661218  0.000000
1.922  0.000000  0.000000  0.000000  -34.532308520756885  8.439915793788956  23.1909112646116  51.54128020775469  9.249853333520699  -3.0079212886089177  23.481083372491565  56.410209409067086  -19.61917459218913  18.079852134284387  0.000000
1.953  0.000000  0.000000  0.000000  -34.30757087528591  8.231609449574574  22.87785684903653  51.57429302495116  9.08947957157253  -3.3081005649291453  23.795884650826743  55.78355127761772  -19.911719430106054  18.081858813328274  0.000000
1.984  0.000000  0.000000  0.000000  -34.04446540040607  7.976190238683497  22.493228677802364  51.6408729161803  8.88653884968514  -3.640697052220959  24.122360080822002  55.08794956860371  -20.25253638366625  18.090415737957994  0.000000
2.015  0.000000  0.000000  0.000000  -33.756492166320605  7.680575521184074  22.031653281611383  51.73662501224343  8.640300918500776  -3.990490274865042  24.451193854490413  54.33737051988175  -20.60790825235346  18.11567323484236  0.000000
2.046  0.000000  0.000000  0.000000  -33.45265544441916  7.350515743564345  21.488565137324617  51.85174725357271  8.35460100195574  -4.3440269301204  24.77569213901154  53.5425844004488  -20.944456930842072  18.1656989002282  0.000000
2.077  0.000000  0.000000  0.000000  -33.14209018699353  6.989463250764548  20.86633503186681  51.975773725419195  8.037579994408878  -4.690300811121505  25.091921707492684  52.709626504018495  -21.23904876522716  18.242619270429376  0.000000
2.108  0.000000  0.000000  0.000000  -32.83105121071976  6.598346050009995  20.170853674435016  52.099887811585845  7.6995934689266905  -5.0216290977987335  25.39874113602993  51.84151036914886  -21.483453172409774  18.342544799001388  0.000000
2.139  0.000000  0.000000  0.000000  -32.52715722445874  6.177989090483748  19.412801740107405  52.21719080008866  7.350668885301316  -5.33302988294461  25.69664739216502  50.94008664611675  -21.679018907300648  18.45852564589492  0.000000
2.17  0.000000  0.000000  0.000000  -32.234263916487386  5.729671740499572  18.601750270689575  52.32156316832112  6.999354848919379  -5.621795205995176  25.986317997786706  50.00812263718305  -21.83179461945415  18.582925461991803  0.000000
2.201  0.000000  0.000000  0.000000  -31.956405913940863  5.2563991429126755  17.748421142582778  52.40795685389693  6.651864564426067  -5.886342790110214  26.26661797972576  49.049013988454476  -21.945710953601793  18.708955128218797  0.000000
2.232  0.000000  0.000000  0.000000  -31.694226957859907  4.762179795322608  16.861535547085065  52.47215521774971  6.312883061093042  -6.126101372770821  26.535686768963195  48.06607824257705  -22.02297942954156  18.831021617674722  0.000000
2.263  0.000000  0.000000  0.000000  -31.448696748075697  4.252539045784704  15.950105340866559  52.510502243069446  5.9864234032639985  -6.340042313515845  26.791494327662452  47.06164003752052  -22.062561066534123  18.94477893720574  0.000000
2.294  0.000000  0.000000  0.000000  -31.21757978180004  3.7330652860975255  15.022078089856208  52.52046726021971  5.677184532791469  -6.5279301334920055  27.033107923790002  46.036092717224925  -22.062858617318454  19.047243135672044  0.000000
2.325  0.000000  0.000000  0.000000  -31.001797408009722  3.210446544326348  14.087105442909726  52.50144219828629  5.389309499800948  -6.688716286278276  27.259864045843297  44.988225235196026  -22.020492623185273  19.136850891551664  0.000000
2.356  0.000000  0.000000  0.000000  -30.801293746951703  2.6919866438774642  13.155346175362181  52.455150975056455  5.126199361985817  -6.822888236887432  27.471138462148392  43.914674061005876  -21.93276216637011  19.213507010926065  0.000000
2.387  0.000000  0.000000  0.000000  -30.616790660210302  2.184524118240049  12.238317706276295  52.38421273266989  4.888194160867888  -6.931400056925656  27.665518233332865  42.81197361206432  -21.796945402852426  19.278358954040122  0.000000
